PathFileType	4	(x/y/z)	S02_P20_T17
DataRate	CameraRate	NumFrames	NumMarkers	Units	OrigDataRate	OrigDataStartFrame	OrigNumFrames
240	240	4	51	mm	240	128	341
Frame#	Time	Sternum			R.Acromium			L.Acromium			Top.Head			R.ASIS			L.ASIS			R.PSIS			L.PSIS			R.Great.Tro			L.Great.Tro			R.Iliac.Crest			L.Iliac.Crest			V.Sacral			R.Thigh.Upper.Post			R.Thigh.Lower.Ant			R.Thigh.Lower.Post			R.Thigh.Upper.Ant			R.Knee.Lat			R.Knee.Med			R.Shank.Upper.Post			R.Shank.Lower.Ant			R.Shank.Lower.Post			R.Shank.Upper.Ant			R.Ankle.Lat			R.Ankle.Med			R.Heel.Upper			R.Heel.Med			R.Heel.Lat			R.Toe.Lat			R.Toe.Med			R.Toe.Tip			L.Thigh.Upper.Post			L.Thigh.Lower.Ant			L.Thigh.Lower.Post			L.Thigh.Upper.Ant			L.Knee.Lat			L.Knee.Med			L.Shank.Upper.Post			L.Shank.Lower.Ant			L.Shank.Lower.Post			L.Shank.Upper.Ant			L.Ankle.Lat			L.Ankle.Med			L.Heel.Upper			L.Heel.Med			L.Heel.Lat			L.Toe.Lat			L.Toe.Med			L.Toe.Tip			Cervical.Spine			Back			
		X1	Y1	Z1	X2	Y2	Z2	X3	Y3	Z3	X4	Y4	Z4	X5	Y5	Z5	X6	Y6	Z6	X7	Y7	Z7	X8	Y8	Z8	X9	Y9	Z9	X10	Y10	Z10	X11	Y11	Z11	X12	Y12	Z12	X13	Y13	Z13	X14	Y14	Z14	X15	Y15	Z15	X16	Y16	Z16	X17	Y17	Z17	X18	Y18	Z18	X19	Y19	Z19	X20	Y20	Z20	X21	Y21	Z21	X22	Y22	Z22	X23	Y23	Z23	X24	Y24	Z24	X25	Y25	Z25	X26	Y26	Z26	X27	Y27	Z27	X28	Y28	Z28	X29	Y29	Z29	X30	Y30	Z30	X31	Y31	Z31	X32	Y32	Z32	X33	Y33	Z33	X34	Y34	Z34	X35	Y35	Z35	X36	Y36	Z36	X37	Y37	Z37	X38	Y38	Z38	X39	Y39	Z39	X40	Y40	Z40	X41	Y41	Z41	X42	Y42	Z42	X43	Y43	Z43	X44	Y44	Z44	X45	Y45	Z45	X46	Y46	Z46	X47	Y47	Z47	X48	Y48	Z48	X49	Y49	Z49	X50	Y50	Z50	X51	Y51	Z51	

128	0.52917	-541.04	1069.2	318.11	-649.89	1307.1	465.42	-645.8	1310	171.85	-594.13	1598.7	315.92	-569.32	905.61	411.64	-582.2	885.39	200.66	-789.28	935.15	375.73	-799.77	934.9	302.3	-613.79	802.65	506.87	-721.53	797.21	128.09	-666.2	950.08	479.05	-709.99	935	145.51	-817.52	885.18	337.82	-539.17	604.75	474.96	-466.9	551.93	425.95	-526.72	518.12	450.72	-483.98	637.43	448.38	-485.85	452.26	427.14	-511.27	445.66	285.98	-576.57	253.87	421.89	-513.18	168.26	390.89	-577.35	180.95	409.32	-507.33	236.33	408.52	-576.5	87.853	392.63	-573.28	98.94	308.41	-640.88	71.403	341.69	-626.91	39.815	314	-634.02	40.616	378.02	-470.05	40.583	409.94	-442.47	32.046	301.04	-392.22	60.848	353.86	-741.99	571.8	155.86	-666.81	492.17	135.68	-738.94	481.49	170.52	-676.75	586.58	125.65	-692.68	413.84	141.02	-664.16	399.14	276.98	-865.76	352.95	162.9	-885.23	244.03	168.33	-921.5	306.04	181.2	-833.88	298.34	151.48	-987.09	207.21	189.92	-974.62	197.09	270.09	-1043.3	235.55	228.97	-1055.5	217.9	266.66	-1066.6	214.78	205.07	-986.47	73.685	173.21	-956.13	71.056	279.18	-912.08	40.928	232.69	-725.59	1373.4	318.94	-801.15	1120.7	317.7
129	0.53333	-535.58	1069.6	318.14	-643.67	1307.2	465.91	-640.88	1310.3	172.4	-588.55	1598.9	316.6	-563.9	906.39	412.1	-576.87	885.57	201.24	-783.84	935.4	375.72	-794.31	934.94	302.25	-608.63	803.12	507.42	-715.41	796.29	128.55	-660.93	950.7	479.14	-704.6	935.03	145.92	-812.08	885.3	337.92	-534.65	604.66	475.23	-462.86	551.38	426.03	-522.79	517.95	451.03	-479.35	636.99	448.44	-482.5	451.6	427.32	-507.92	445.23	286.28	-574.72	253.84	422.24	-512.16	167.72	390.88	-576.16	180.91	409.58	-505.67	235.72	408.57	-576.42	87.89	392.75	-573.21	98.981	308.59	-640.89	71.491	341.8	-626.93	39.928	314.07	-634.05	40.638	378.09	-470.08	40.532	410.02	-442.49	32.058	301.08	-392.21	60.744	353.95	-732.96	570.67	155.55	-656.65	492.18	134.59	-728.4	480.31	169.87	-668.01	586.48	125.01	-681.2	413.72	139.69	-650.92	398.76	275.65	-854.11	355.45	162.6	-875.25	246.72	167.94	-910.5	309.34	181.23	-823.44	300.3	150.76	-977.45	211.47	189.96	-964.62	200.92	270.03	-1032.3	241.56	229.34	-1045.1	224.22	267.06	-1056.5	221.56	205.58	-980.85	77.53	173.19	-949.65	73.688	278.75	-907.11	40.903	231.82	-720.03	1373.6	319.85	-795.65	1121	318.71
130	0.5375	-530.14	1070	318.15	-637.47	1307.5	466.37	-636	1310.7	172.91	-582.96	1599.1	317.27	-558.53	907.19	412.55	-571.55	885.76	201.79	-778.44	935.7	375.7	-788.89	935.04	302.2	-603.52	803.61	507.95	-709.34	795.48	129.02	-655.7	951.34	479.23	-699.26	935.05	146.31	-806.68	885.48	338	-530.29	604.56	475.53	-458.99	550.78	426.18	-519.06	517.76	451.38	-474.86	636.5	448.56	-479.42	450.9	427.6	-504.85	444.7	286.68	-573	253.79	422.6	-511.21	167.2	390.91	-575.05	180.86	409.85	-504.13	235.12	408.66	-576.35	87.92	392.88	-573.13	99.026	308.77	-640.89	71.568	341.92	-626.93	40.033	314.13	-634.07	40.644	378.17	-470.1	40.481	410.1	-442.5	32.095	301.14	-392.2	60.671	354.05	-723.95	569.69	155.24	-646.56	492.35	133.51	-717.9	479.31	169.24	-659.32	586.52	124.38	-669.74	413.79	138.39	-637.73	398.64	274.36	-842.36	357.97	162.35	-865.07	249.43	167.59	-899.34	312.61	181.31	-812.84	302.32	150.08	-967.55	215.65	190.06	-954.35	204.65	270.03	-1021.2	247.3	229.81	-1034.3	230.19	267.52	-1046.2	228.03	206.18	-974.65	81.403	173.17	-942.58	76.34	278.3	-901.52	41.061	230.88	-714.5	1373.9	320.73	-790.16	1121.3	319.68
131	0.54167	-524.73	1070.5	318.15	-631.31	1307.7	466.81	-631.14	1311.2	173.4	-577.38	1599.4	317.93	-553.19	907.99	413	-566.23	885.96	202.3	-773.09	936.05	375.69	-783.52	935.2	302.15	-598.44	804.14	508.47	-703.33	794.81	129.51	-650.51	952	479.34	-693.97	935.05	146.68	-801.32	885.71	338.08	-526.09	604.45	475.87	-455.29	550.13	426.4	-515.52	517.56	451.77	-470.51	635.96	448.73	-476.58	450.18	427.97	-502.07	444.08	287.17	-571.4	253.72	422.97	-510.34	166.69	390.98	-574.02	180.79	410.12	-502.71	234.52	408.79	-576.29	87.943	393.02	-573.06	99.074	308.95	-640.89	71.635	342.03	-626.93	40.132	314.2	-634.09	40.64	378.25	-470.12	40.428	410.19	-442.51	32.15	301.19	-392.19	60.621	354.16	-714.98	568.87	154.94	-636.53	492.69	132.44	-707.43	478.5	168.64	-650.67	586.71	123.75	-658.28	414.05	137.11	-624.63	398.78	273.13	-830.54	360.51	162.15	-854.7	252.16	167.28	-888.04	315.84	181.46	-802.06	304.4	149.46	-957.41	219.71	190.23	-943.81	208.24	270.1	-1009.9	252.7	230.38	-1023.3	235.75	268.05	-1035.7	234.13	206.89	-967.84	85.264	173.15	-934.9	78.986	277.84	-895.28	41.419	229.89	-709	1374.2	321.59	-784.69	1121.6	320.64
